<svg xmlns="http://www.w3.org/2000/svg" xmlns:xlink="http://www.w3.org/1999/xlink" width="135" height="135" viewBox="0 0 135 135">
  <defs>
    <filter id="Ellipse_5" x="0" y="0" width="135" height="135" filterUnits="userSpaceOnUse">
      <feOffset dy="3" input="SourceAlpha"/>
      <feGaussianBlur stdDeviation="3" result="blur"/>
      <feFlood flood-opacity="0.161"/>
      <feComposite operator="in" in2="blur"/>
      <feComposite in="SourceGraphic"/>
    </filter>
  </defs>
  <g id="github" transform="translate(-627 -412)">
    <g transform="matrix(1, 0, 0, 1, 627, 412)" filter="url(#Ellipse_5)">
      <circle id="Ellipse_5-2" data-name="Ellipse 5" cx="58.5" cy="58.5" r="58.5" transform="translate(9 6)" fill="#0081a2"/>
    </g>
    <path id="Icon_feather-github" data-name="Icon feather-github" d="M18.132,40.428C7.323,43.671,7.323,35.024,3,33.943m30.264,12.97V38.548a7.285,7.285,0,0,0-2.032-5.642c6.788-.757,13.921-3.329,13.921-15.132a11.758,11.758,0,0,0-3.241-8.1,10.96,10.96,0,0,0-.2-8.151s-2.551-.757-8.452,3.2a28.924,28.924,0,0,0-15.132,0c-5.9-3.956-8.452-3.2-8.452-3.2a10.96,10.96,0,0,0-.195,8.15,11.76,11.76,0,0,0-3.243,8.171c0,11.716,7.134,14.289,13.921,15.132a7.285,7.285,0,0,0-2.032,5.577v8.366" transform="translate(670.423 452.313)" fill="none" stroke="#fff" stroke-linecap="round" stroke-linejoin="round" stroke-width="3"/>
  </g>
</svg>
