<svg xmlns="http://www.w3.org/2000/svg" xmlns:xlink="http://www.w3.org/1999/xlink" width="168" height="168" viewBox="0 0 168 168">
  <defs>
    <filter id="Ellipse_1" x="0" y="0" width="168" height="168" filterUnits="userSpaceOnUse">
      <feOffset dy="3" input="SourceAlpha"/>
      <feGaussianBlur stdDeviation="3" result="blur"/>
      <feFlood flood-opacity="0.161"/>
      <feComposite operator="in" in2="blur"/>
      <feComposite in="SourceGraphic"/>
    </filter>
  </defs>
  <g id="like" transform="translate(-44 -175)">
    <g transform="matrix(1, 0, 0, 1, 44, 175)" filter="url(#Ellipse_1)">
      <circle id="Ellipse_1-2" data-name="Ellipse 1" cx="75" cy="75" r="75" transform="translate(9 6)" fill="#fff"/>
    </g>
    <g id="thumb-up" transform="translate(95.954 225.497)">
      <path id="Path_1" data-name="Path 1" d="M13,33,24,2s7-.182,7,8V25H55a5.618,5.618,0,0,1,5.727,5.364,5.4,5.4,0,0,1-1.312,3.511,5.418,5.418,0,0,1-.986,9.8,5.432,5.432,0,0,1-3.06,8.285A4.084,4.084,0,0,1,52.545,59H31a39.551,39.551,0,0,1-18-4" fill="none" stroke="#0081a2" stroke-miterlimit="10" stroke-width="3"/>
      <rect id="Rectangle_2" data-name="Rectangle 2" width="11" height="30" rx="3" transform="translate(2 28)" fill="none" stroke="#0081a2" stroke-linecap="square" stroke-miterlimit="10" stroke-width="3"/>
    </g>
  </g>
</svg>
