<svg xmlns="http://www.w3.org/2000/svg" xmlns:xlink="http://www.w3.org/1999/xlink" width="168" height="168" viewBox="0 0 168 168">
  <defs>
    <filter id="Ellipse_1" x="0" y="0" width="168" height="168" filterUnits="userSpaceOnUse">
      <feOffset dy="3" input="SourceAlpha"/>
      <feGaussianBlur stdDeviation="3" result="blur"/>
      <feFlood flood-opacity="0.161"/>
      <feComposite operator="in" in2="blur"/>
      <feComposite in="SourceGraphic"/>
    </filter>
  </defs>
  <g id="stach" transform="translate(-44 -175)">
    <g transform="matrix(1, 0, 0, 1, 44, 175)" filter="url(#Ellipse_1)">
      <circle id="Ellipse_1-2" data-name="Ellipse 1" cx="75" cy="75" r="75" transform="translate(9 6)" fill="#fff"/>
    </g>
    <path id="stache" d="M31.736,4.387C27.376-.293,21.9.55,18.79,5.114c-2.243,3.3-4.384,4.937-7.924,5.406C8.381,10.855.774,7.27-2.833,6.555-2.93,9.7-.986,14.737.87,18.322c1.735,3.359,6.087,5.9,8.634,7.123C19.88,30.459,25.109,20.5,32.085,16.522c5.232,3.125,7.944,5.886,13.06,8.2a16.175,16.175,0,0,0,8.82.726,14.381,14.381,0,0,0,9.224-5.764c3.437-5.461,3.716-11.87,3.2-13.125-.386-1.276-6.238,4.1-9.958,3.965-4.883-.174-6.536-1.947-9.341-5.406-5.014-6.148-7.655-5.29-14.631,0" transform="translate(96.123 242.178)" fill="none" stroke="#0081a2" stroke-linecap="round" stroke-linejoin="round" stroke-width="4"/>
  </g>
</svg>
