<svg xmlns="http://www.w3.org/2000/svg" xmlns:xlink="http://www.w3.org/1999/xlink" width="135" height="135" viewBox="0 0 135 135">
  <defs>
    <filter id="Ellipse_4" x="0" y="0" width="135" height="135" filterUnits="userSpaceOnUse">
      <feOffset dy="3" input="SourceAlpha"/>
      <feGaussianBlur stdDeviation="3" result="blur"/>
      <feFlood flood-opacity="0.161"/>
      <feComposite operator="in" in2="blur"/>
      <feComposite in="SourceGraphic"/>
    </filter>
  </defs>
  <g id="twitter" transform="translate(-410 -412)">
    <g transform="matrix(1, 0, 0, 1, 410, 412)" filter="url(#Ellipse_4)">
      <circle id="Ellipse_4-2" data-name="Ellipse 4" cx="58.5" cy="58.5" r="58.5" transform="translate(9 6)" fill="#0081a2"/>
    </g>
    <path id="Icon_ionic-logo-twitter" data-name="Icon ionic-logo-twitter" d="M53.522,9.517a21.639,21.639,0,0,1-6.14,1.687,10.715,10.715,0,0,0,4.7-5.91A21.263,21.263,0,0,1,45.3,7.885a10.691,10.691,0,0,0-18.5,7.3,10.435,10.435,0,0,0,.276,2.437A30.312,30.312,0,0,1,5.035,6.451,10.685,10.685,0,0,0,8.359,20.718,10.454,10.454,0,0,1,3.5,19.384v.132a10.688,10.688,0,0,0,8.58,10.474,10.777,10.777,0,0,1-2.816.375,10.1,10.1,0,0,1-2.01-.2,10.706,10.706,0,0,0,9.993,7.42A21.455,21.455,0,0,1,3.964,42.163a21.7,21.7,0,0,1-2.551-.154,29.915,29.915,0,0,0,16.365,4.829c19.688,0,30.444-16.284,30.444-30.408,0-.463-.011-.926-.033-1.378A21.744,21.744,0,0,0,53.522,9.517Z" transform="translate(450.032 450.831)" fill="none" stroke="#fff" stroke-width="3"/>
  </g>
</svg>
